<?xml version="1.0" encoding="UTF-8" standalone="no"?>
<!-- Created with Inkscape (http://www.inkscape.org/) -->

<svg
   xmlns:dc="http://purl.org/dc/elements/1.1/"
   xmlns:cc="http://creativecommons.org/ns#"
   xmlns:rdf="http://www.w3.org/1999/02/22-rdf-syntax-ns#"
   xmlns:svg="http://www.w3.org/2000/svg"
   xmlns="http://www.w3.org/2000/svg"
   xmlns:sodipodi="http://sodipodi.sourceforge.net/DTD/sodipodi-0.dtd"
   xmlns:inkscape="http://www.inkscape.org/namespaces/inkscape"
   width="392"
   height="60"
   viewBox="0 0 103.71716 15.875"
   version="1.1"
   id="svg8"
   inkscape:version="0.92.3 (2405546, 2018-03-11)"
   sodipodi:docname="logo_positivum.svg"
   inkscape:export-filename="/home/tomas/Documents/GitHub/positivum/images/logo.png"
   inkscape:export-xdpi="96"
   inkscape:export-ydpi="96">
  <defs
     id="defs2" />
  <sodipodi:namedview
     id="base"
     pagecolor="#ffffff"
     bordercolor="#666666"
     borderopacity="1.0"
     inkscape:pageopacity="0.0"
     inkscape:pageshadow="2"
     inkscape:zoom="1.4"
     inkscape:cx="56.054579"
     inkscape:cy="43.472696"
     inkscape:document-units="mm"
     inkscape:current-layer="layer1"
     showgrid="false"
     inkscape:snap-global="false"
     inkscape:window-width="1920"
     inkscape:window-height="1025"
     inkscape:window-x="0"
     inkscape:window-y="26"
     inkscape:window-maximized="1"
     units="px" />
  <metadata
     id="metadata5">
    <rdf:RDF>
      <cc:Work
         rdf:about="">
        <dc:format>image/svg+xml</dc:format>
        <dc:type
           rdf:resource="http://purl.org/dc/dcmitype/StillImage" />
        <dc:title></dc:title>
      </cc:Work>
    </rdf:RDF>
  </metadata>
  <g
     inkscape:label="Layer 1"
     inkscape:groupmode="layer"
     id="layer1"
     transform="translate(0,-281.12498)">
    <text
       xml:space="preserve"
       style="font-style:normal;font-weight:normal;font-size:10.58333302px;line-height:1.25;font-family:sans-serif;letter-spacing:0px;word-spacing:0px;fill:#464c55;fill-opacity:1;stroke:none;stroke-width:0.26458332"
       x="19.697258"
       y="294.80643"
       id="text81"><tspan
         sodipodi:role="line"
         id="tspan79"
         x="19.697258"
         y="294.80643"
         style="font-style:normal;font-variant:normal;font-weight:300;font-stretch:normal;font-size:15.875px;font-family:Roboto;-inkscape-font-specification:'Roboto Light';fill:#464c55;fill-opacity:1;stroke-width:0.26458332">POSITIVUM</tspan></text>
    <g
       id="g131"
       transform="matrix(0.13229167,0,0,0.13229167,1.508257,280.76535)">
      <path
         id="path108"
         d="M 109.7,110 H 18.2 C 13.1,110 9,105.9 9,100.8 V 22.6 C 9,20.1 11.1,18 13.6,18 H 96 c 2.5,0 4.6,2.1 4.6,4.6 v 23.1 55.2 c 0,5 4.1,9.1 9.1,9.1 v 0 c 5.1,0 9.2,-4.1 9.2,-9.2 V 50.2 c 0,-2.5 -2.1,-4.6 -4.6,-4.6 h -4.6"
         inkscape:connector-curvature="0"
         style="fill:#000000;fill-opacity:0" />
      <path
         id="path110"
         d="m 23,31.9 h 63.1 c 1.7,0 3,1.3 3,3 v 16.9 c 0,1.7 -1.3,3 -3,3 H 23 c -1.7,0 -3,-1.3 -3,-3 V 34.9 c 0,-1.7 1.3,-3 3,-3 z m 86.7,78.1 v 0 c 5.1,0 9.2,-4.1 9.2,-9.2 V 50.2 c 0,-2.5 -2.1,-4.6 -4.6,-4.6 h -13.8 v 55.2 c 0.1,5.1 4.2,9.2 9.2,9.2 z"
         inkscape:connector-curvature="0"
         style="fill:#dedfe6" />
      <path
         id="path112"
         d="M 109.7,113 H 18.2 C 11.5,113 6,107.5 6,100.8 V 22.6 C 6,18.4 9.4,15 13.6,15 H 96 c 4.2,0 7.6,3.4 7.6,7.6 v 78.3 c 0,3.4 2.8,6.2 6.2,6.2 3.4,0 6.2,-2.8 6.2,-6.2 V 50.2 c 0,-0.9 -0.7,-1.6 -1.6,-1.6 h -4.6 c -1.7,0 -3,-1.3 -3,-3 0,-1.7 1.3,-3 3,-3 h 4.6 c 4.2,0 7.6,3.4 7.6,7.6 v 50.6 c -0.1,6.8 -5.6,12.2 -12.3,12.2 z M 13.6,21 C 12.7,21 12,21.7 12,22.6 v 78.3 c 0,3.4 2.8,6.2 6.2,6.2 h 81.1 c -1.1,-1.8 -1.7,-3.9 -1.7,-6.2 V 22.6 C 97.6,21.7 96.9,21 96,21 Z"
         inkscape:connector-curvature="0"
         style="fill:#464c55" />
      <path
         id="path114"
         d="M 41.2,72.9 H 23 c -1.7,0 -3,-1.3 -3,-3 0,-1.7 1.3,-3 3,-3 h 18.2 c 1.7,0 3,1.3 3,3 0,1.7 -1.3,3 -3,3 z m 0,25.8 H 23 c -1.7,0 -3,-1.3 -3,-3 0,-1.7 1.3,-3 3,-3 h 18.2 c 1.7,0 3,1.3 3,3 0,1.7 -1.3,3 -3,3 z m 0,-13 H 23 c -1.7,0 -3,-1.3 -3,-3 0,-1.7 1.3,-3 3,-3 h 18.2 c 1.7,0 3,1.3 3,3 0,1.7 -1.3,3 -3,3 z"
         inkscape:connector-curvature="0"
         style="fill:#dedfe6;fill-opacity:1" />
    </g>
    <g
       id="g4658"
       transform="matrix(0.04848301,0,0,0.04848301,7.811624,288.11241)">
      <path
         id="path4641"
         d="M 93.1,56 H 80.9 c -2.4,0 -4.4,-2 -4.4,-4.4 v -2 c 1.4,-3.5 2.5,-7 3.2,-10.6 0.3,-1.3 0.5,-2.6 0.7,-3.9 l 0.6,-4 c 0.6,-4.4 -2.5,-8.4 -6.8,-9 -4.4,-0.6 -8.4,2.5 -9,6.8 l -0.6,4 C 62.7,46.4 55.2,58.4 44,66 H 34 32 21 v 40 h 13 v 0 0 l 9.4,3.5 c 4.4,1.6 9.1,2.5 13.7,2.5 h 29.6 c 4.8,0 8.9,-3.4 9.7,-8.1 l 6.1,-33.9 0.4,-2.3 C 104,61.6 99.3,56 93.1,56 Z"
         inkscape:connector-curvature="0"
         style="fill:#000000;fill-opacity:0" />
      <path
         id="path4643"
         d="M 86.6,115 H 56.8 c -4.8,0 -9.4,-0.8 -13.9,-2.5 -1.6,-0.6 -2.3,-2.3 -1.8,-3.9 0.6,-1.6 2.3,-2.3 3.9,-1.8 3.8,1.4 7.7,2.1 11.8,2.1 h 29.8 c 3.4,0 6.3,-2.4 6.9,-5.8 l 6.4,-36 C 100.3,65.1 99.7,63 98.4,61.4 97.1,59.8 95.1,59 93.1,59 H 73 c -1.7,0 -3,-1.3 -3,-3 0,-1.7 1.3,-3 3,-3 h 20.1 c 3.9,0 7.5,1.7 10,4.7 2.5,3 3.5,6.8 2.8,10.6 l -6.4,36 C 98.3,110.5 92.9,115 86.6,115 Z M 34,109 H 24 c -1.7,0 -3,-1.3 -3,-3 0,-1.7 1.3,-3 3,-3 h 7 V 69 h -7 c -1.7,0 -3,-1.3 -3,-3 0,-1.7 1.3,-3 3,-3 h 10 c 1.7,0 3,1.3 3,3 v 40 c 0,1.7 -1.3,3 -3,3 z"
         inkscape:connector-curvature="0"
         style="fill:#666666;fill-opacity:1" />
      <path
         id="path4645"
         d="m 44,69 c -1,0 -1.9,-0.5 -2.5,-1.3 -0.9,-1.4 -0.6,-3.2 0.8,-4.2 10.5,-7.2 17.5,-18.5 19.2,-31 l 0.6,-4 c 0.4,-2.9 1.9,-5.5 4.3,-7.3 2.3,-1.8 5.2,-2.5 8.1,-2.1 2.9,0.4 5.5,1.9 7.3,4.3 1.8,2.4 2.5,5.2 2.1,8.1 l -0.6,4 c -0.6,4.1 -1.5,8.1 -2.8,12 -0.5,1.6 -2.2,2.4 -3.8,1.9 -1.6,-0.5 -2.4,-2.2 -1.9,-3.8 1.2,-3.5 2,-7.2 2.5,-10.9 l 0.6,-4 c 0.2,-1.3 -0.2,-2.6 -1,-3.7 -0.8,-1.1 -2,-1.8 -3.3,-1.9 -1.3,-0.2 -2.6,0.2 -3.7,1 -1.1,0.8 -1.8,2 -1.9,3.3 l -0.6,4 c -2,14.2 -9.9,27 -21.8,35.2 -0.4,0.2 -1,0.4 -1.6,0.4 z"
         inkscape:connector-curvature="0"
         style="fill:#666666;fill-opacity:1" />
    </g>
  </g>
</svg>
